<svg xmlns="http://www.w3.org/2000/svg" width="860" height="200" viewBox="0 0 860 200">
  <style>
    .bg { fill: #0d1117; rx: 6px; stroke: #30363d; stroke-width: 1; }
    .text { font-family: -apple-system, BlinkMacSystemFont, "Segoe UI", Helvetica, Arial, sans-serif; font-size: 10px; fill: #7d8590; }
    .subtext { font-family: -apple-system, BlinkMacSystemFont, "Segoe UI", Helvetica, Arial, sans-serif; font-size: 12px; fill: #c9d1d9; font-weight: bold; }
    .rect { rx: 2px; ry: 2px; }
  </style>
  <rect width="100%" height="100%" class="bg"/>
  <text x="30" y="28" class="subtext">0 contributions in the last year</text>
  
  <!-- 星期標籤 -->
  <text x="15" y="66" class="text">Mon</text>
  <text x="15" y="92" class="text">Wed</text>
  <text x="15" y="118" class="text">Fri</text>
  <g transform="translate(45, 42)">
    <text x="0" y="0" class="text">Aug</text>
    <text x="13" y="0" class="text">Oct</text>
    <text x="26" y="0" class="text">Dec</text>
    <text x="39" y="0" class="text">Jan</text>
    <text x="52" y="0" class="text">Mar</text>
    <text x="65" y="0" class="text">May</text>
    <text x="78" y="0" class="text">Jun</text>
    <text x="91" y="0" class="text">Aug</text>
    <text x="104" y="0" class="text">Sep</text>
    <text x="117" y="0" class="text">Nov</text>
    <text x="130" y="0" class="text">Dec</text>
    <text x="143" y="0" class="text">Feb</text>
    <text x="156" y="0" class="text">Apr</text>
    <text x="169" y="0" class="text">May</text>
    <text x="182" y="0" class="text">Jul</text>
    <text x="195" y="0" class="text">Aug</text>
    <text x="208" y="0" class="text">Oct</text>
    <text x="221" y="0" class="text">Dec</text>
    <text x="234" y="0" class="text">Jan</text>
    <text x="247" y="0" class="text">Mar</text>
    <text x="260" y="0" class="text">Apr</text>
    <text x="273" y="0" class="text">Jun</text>
    <text x="286" y="0" class="text">Aug</text>
    <text x="299" y="0" class="text">Sep</text>
    <text x="312" y="0" class="text">Nov</text>
    <text x="325" y="0" class="text">Dec</text>
    <text x="338" y="0" class="text">Feb</text>
    <text x="351" y="0" class="text">Apr</text>
    <text x="364" y="0" class="text">May</text>
    <text x="377" y="0" class="text">Jul</text>
    <text x="390" y="0" class="text">Aug</text>
    <text x="403" y="0" class="text">Oct</text>
    <text x="416" y="0" class="text">Dec</text>
    <text x="429" y="0" class="text">Jan</text>
    <text x="442" y="0" class="text">Mar</text>
    <text x="455" y="0" class="text">Apr</text>
    <text x="468" y="0" class="text">Jun</text>
    <text x="481" y="0" class="text">Aug</text>
    <text x="494" y="0" class="text">Sep</text>
    <text x="507" y="0" class="text">Nov</text>
    <text x="520" y="0" class="text">Jan</text>
    <text x="533" y="0" class="text">Feb</text>
    <text x="546" y="0" class="text">Apr</text>
    <text x="559" y="0" class="text">May</text>
    <text x="572" y="0" class="text">Jul</text>
    <text x="585" y="0" class="text">Sep</text>
    <text x="598" y="0" class="text">Oct</text>
    <text x="611" y="0" class="text">Dec</text>
    <text x="624" y="0" class="text">Jan</text>
    <text x="637" y="0" class="text">Mar</text>
    <text x="650" y="0" class="text">May</text>
    <text x="663" y="0" class="text">Jun</text>
    <text x="676" y="0" class="text">Aug</text>
  </g>
  <g transform="translate(45, 52)">
    <rect x="0" y="0" width="10" height="10" fill="#161b22" class="rect"/>
    <rect x="0" y="13" width="10" height="10" fill="#161b22" class="rect"/>
    <rect x="0" y="26" width="10" height="10" fill="#161b22" class="rect"/>
    <rect x="0" y="39" width="10" height="10" fill="#161b22" class="rect"/>
    <rect x="0" y="52" width="10" height="10" fill="#161b22" class="rect"/>
    <rect x="0" y="65" width="10" height="10" fill="#161b22" class="rect"/>
    <rect x="0" y="78" width="10" height="10" fill="#161b22" class="rect"/>
    <rect x="13" y="0" width="10" height="10" fill="#161b22" class="rect"/>
    <rect x="13" y="13" width="10" height="10" fill="#161b22" class="rect"/>
    <rect x="13" y="26" width="10" height="10" fill="#161b22" class="rect"/>
    <rect x="13" y="39" width="10" height="10" fill="#161b22" class="rect"/>
    <rect x="13" y="52" width="10" height="10" fill="#161b22" class="rect"/>
    <rect x="13" y="65" width="10" height="10" fill="#161b22" class="rect"/>
    <rect x="13" y="78" width="10" height="10" fill="#161b22" class="rect"/>
    <rect x="26" y="0" width="10" height="10" fill="#161b22" class="rect"/>
    <rect x="26" y="13" width="10" height="10" fill="#161b22" class="rect"/>
    <rect x="26" y="26" width="10" height="10" fill="#161b22" class="rect"/>
    <rect x="26" y="39" width="10" height="10" fill="#161b22" class="rect"/>
    <rect x="26" y="52" width="10" height="10" fill="#161b22" class="rect"/>
    <rect x="26" y="65" width="10" height="10" fill="#161b22" class="rect"/>
    <rect x="26" y="78" width="10" height="10" fill="#161b22" class="rect"/>
    <rect x="39" y="0" width="10" height="10" fill="#161b22" class="rect"/>
    <rect x="39" y="13" width="10" height="10" fill="#161b22" class="rect"/>
    <rect x="39" y="26" width="10" height="10" fill="#161b22" class="rect"/>
    <rect x="39" y="39" width="10" height="10" fill="#161b22" class="rect"/>
    <rect x="39" y="52" width="10" height="10" fill="#161b22" class="rect"/>
    <rect x="39" y="65" width="10" height="10" fill="#161b22" class="rect"/>
    <rect x="39" y="78" width="10" height="10" fill="#161b22" class="rect"/>
    <rect x="52" y="0" width="10" height="10" fill="#161b22" class="rect"/>
    <rect x="52" y="13" width="10" height="10" fill="#161b22" class="rect"/>
    <rect x="52" y="26" width="10" height="10" fill="#161b22" class="rect"/>
    <rect x="52" y="39" width="10" height="10" fill="#39d353" class="rect"/>
    <rect x="52" y="52" width="10" height="10" fill="#161b22" class="rect"/>
    <rect x="52" y="65" width="10" height="10" fill="#161b22" class="rect"/>
    <rect x="52" y="78" width="10" height="10" fill="#161b22" class="rect"/>
    <rect x="65" y="0" width="10" height="10" fill="#161b22" class="rect"/>
    <rect x="65" y="13" width="10" height="10" fill="#161b22" class="rect"/>
    <rect x="65" y="26" width="10" height="10" fill="#161b22" class="rect"/>
    <rect x="65" y="39" width="10" height="10" fill="#161b22" class="rect"/>
    <rect x="65" y="52" width="10" height="10" fill="#161b22" class="rect"/>
    <rect x="65" y="65" width="10" height="10" fill="#161b22" class="rect"/>
    <rect x="65" y="78" width="10" height="10" fill="#161b22" class="rect"/>
    <rect x="78" y="0" width="10" height="10" fill="#161b22" class="rect"/>
    <rect x="78" y="13" width="10" height="10" fill="#161b22" class="rect"/>
    <rect x="78" y="26" width="10" height="10" fill="#161b22" class="rect"/>
    <rect x="78" y="39" width="10" height="10" fill="#161b22" class="rect"/>
    <rect x="78" y="52" width="10" height="10" fill="#161b22" class="rect"/>
    <rect x="78" y="65" width="10" height="10" fill="#161b22" class="rect"/>
    <rect x="78" y="78" width="10" height="10" fill="#161b22" class="rect"/>
    <rect x="91" y="0" width="10" height="10" fill="#161b22" class="rect"/>
    <rect x="91" y="13" width="10" height="10" fill="#161b22" class="rect"/>
    <rect x="91" y="26" width="10" height="10" fill="#161b22" class="rect"/>
    <rect x="91" y="39" width="10" height="10" fill="#161b22" class="rect"/>
    <rect x="91" y="52" width="10" height="10" fill="#161b22" class="rect"/>
    <rect x="91" y="65" width="10" height="10" fill="#161b22" class="rect"/>
    <rect x="91" y="78" width="10" height="10" fill="#161b22" class="rect"/>
    <rect x="104" y="0" width="10" height="10" fill="#161b22" class="rect"/>
    <rect x="104" y="13" width="10" height="10" fill="#161b22" class="rect"/>
    <rect x="104" y="26" width="10" height="10" fill="#161b22" class="rect"/>
    <rect x="104" y="39" width="10" height="10" fill="#161b22" class="rect"/>
    <rect x="104" y="52" width="10" height="10" fill="#161b22" class="rect"/>
    <rect x="104" y="65" width="10" height="10" fill="#161b22" class="rect"/>
    <rect x="104" y="78" width="10" height="10" fill="#161b22" class="rect"/>
    <rect x="117" y="0" width="10" height="10" fill="#161b22" class="rect"/>
    <rect x="117" y="13" width="10" height="10" fill="#161b22" class="rect"/>
    <rect x="117" y="26" width="10" height="10" fill="#161b22" class="rect"/>
    <rect x="117" y="39" width="10" height="10" fill="#161b22" class="rect"/>
    <rect x="117" y="52" width="10" height="10" fill="#161b22" class="rect"/>
    <rect x="117" y="65" width="10" height="10" fill="#161b22" class="rect"/>
    <rect x="117" y="78" width="10" height="10" fill="#161b22" class="rect"/>
    <rect x="130" y="0" width="10" height="10" fill="#161b22" class="rect"/>
    <rect x="130" y="13" width="10" height="10" fill="#161b22" class="rect"/>
    <rect x="130" y="26" width="10" height="10" fill="#161b22" class="rect"/>
    <rect x="130" y="39" width="10" height="10" fill="#161b22" class="rect"/>
    <rect x="130" y="52" width="10" height="10" fill="#161b22" class="rect"/>
    <rect x="130" y="65" width="10" height="10" fill="#161b22" class="rect"/>
    <rect x="130" y="78" width="10" height="10" fill="#161b22" class="rect"/>
    <rect x="143" y="0" width="10" height="10" fill="#161b22" class="rect"/>
    <rect x="143" y="13" width="10" height="10" fill="#161b22" class="rect"/>
    <rect x="143" y="26" width="10" height="10" fill="#161b22" class="rect"/>
    <rect x="143" y="39" width="10" height="10" fill="#161b22" class="rect"/>
    <rect x="143" y="52" width="10" height="10" fill="#161b22" class="rect"/>
    <rect x="143" y="65" width="10" height="10" fill="#161b22" class="rect"/>
    <rect x="143" y="78" width="10" height="10" fill="#161b22" class="rect"/>
    <rect x="156" y="0" width="10" height="10" fill="#161b22" class="rect"/>
    <rect x="156" y="13" width="10" height="10" fill="#161b22" class="rect"/>
    <rect x="156" y="26" width="10" height="10" fill="#161b22" class="rect"/>
    <rect x="156" y="39" width="10" height="10" fill="#161b22" class="rect"/>
    <rect x="156" y="52" width="10" height="10" fill="#161b22" class="rect"/>
    <rect x="156" y="65" width="10" height="10" fill="#161b22" class="rect"/>
    <rect x="156" y="78" width="10" height="10" fill="#161b22" class="rect"/>
    <rect x="169" y="0" width="10" height="10" fill="#161b22" class="rect"/>
    <rect x="169" y="13" width="10" height="10" fill="#161b22" class="rect"/>
    <rect x="169" y="26" width="10" height="10" fill="#161b22" class="rect"/>
    <rect x="169" y="39" width="10" height="10" fill="#161b22" class="rect"/>
    <rect x="169" y="52" width="10" height="10" fill="#161b22" class="rect"/>
    <rect x="169" y="65" width="10" height="10" fill="#161b22" class="rect"/>
    <rect x="169" y="78" width="10" height="10" fill="#161b22" class="rect"/>
    <rect x="182" y="0" width="10" height="10" fill="#161b22" class="rect"/>
    <rect x="182" y="13" width="10" height="10" fill="#161b22" class="rect"/>
    <rect x="182" y="26" width="10" height="10" fill="#161b22" class="rect"/>
    <rect x="182" y="39" width="10" height="10" fill="#161b22" class="rect"/>
    <rect x="182" y="52" width="10" height="10" fill="#161b22" class="rect"/>
    <rect x="182" y="65" width="10" height="10" fill="#161b22" class="rect"/>
    <rect x="182" y="78" width="10" height="10" fill="#161b22" class="rect"/>
    <rect x="195" y="0" width="10" height="10" fill="#39d353" class="rect"/>
    <rect x="195" y="13" width="10" height="10" fill="#161b22" class="rect"/>
    <rect x="195" y="26" width="10" height="10" fill="#161b22" class="rect"/>
    <rect x="195" y="39" width="10" height="10" fill="#161b22" class="rect"/>
    <rect x="195" y="52" width="10" height="10" fill="#161b22" class="rect"/>
    <rect x="195" y="65" width="10" height="10" fill="#161b22" class="rect"/>
    <rect x="195" y="78" width="10" height="10" fill="#161b22" class="rect"/>
    <rect x="208" y="0" width="10" height="10" fill="#161b22" class="rect"/>
    <rect x="208" y="13" width="10" height="10" fill="#161b22" class="rect"/>
    <rect x="208" y="26" width="10" height="10" fill="#161b22" class="rect"/>
    <rect x="208" y="39" width="10" height="10" fill="#161b22" class="rect"/>
    <rect x="208" y="52" width="10" height="10" fill="#161b22" class="rect"/>
    <rect x="208" y="65" width="10" height="10" fill="#161b22" class="rect"/>
    <rect x="208" y="78" width="10" height="10" fill="#161b22" class="rect"/>
    <rect x="221" y="0" width="10" height="10" fill="#161b22" class="rect"/>
    <rect x="221" y="13" width="10" height="10" fill="#161b22" class="rect"/>
    <rect x="221" y="26" width="10" height="10" fill="#161b22" class="rect"/>
    <rect x="221" y="39" width="10" height="10" fill="#161b22" class="rect"/>
    <rect x="221" y="52" width="10" height="10" fill="#161b22" class="rect"/>
    <rect x="221" y="65" width="10" height="10" fill="#161b22" class="rect"/>
    <rect x="221" y="78" width="10" height="10" fill="#161b22" class="rect"/>
    <rect x="234" y="0" width="10" height="10" fill="#161b22" class="rect"/>
    <rect x="234" y="13" width="10" height="10" fill="#161b22" class="rect"/>
    <rect x="234" y="26" width="10" height="10" fill="#161b22" class="rect"/>
    <rect x="234" y="39" width="10" height="10" fill="#161b22" class="rect"/>
    <rect x="234" y="52" width="10" height="10" fill="#161b22" class="rect"/>
    <rect x="234" y="65" width="10" height="10" fill="#161b22" class="rect"/>
    <rect x="234" y="78" width="10" height="10" fill="#161b22" class="rect"/>
    <rect x="247" y="0" width="10" height="10" fill="#161b22" class="rect"/>
    <rect x="247" y="13" width="10" height="10" fill="#161b22" class="rect"/>
    <rect x="247" y="26" width="10" height="10" fill="#161b22" class="rect"/>
    <rect x="247" y="39" width="10" height="10" fill="#161b22" class="rect"/>
    <rect x="247" y="52" width="10" height="10" fill="#161b22" class="rect"/>
    <rect x="247" y="65" width="10" height="10" fill="#161b22" class="rect"/>
    <rect x="247" y="78" width="10" height="10" fill="#161b22" class="rect"/>
    <rect x="260" y="0" width="10" height="10" fill="#161b22" class="rect"/>
    <rect x="260" y="13" width="10" height="10" fill="#161b22" class="rect"/>
    <rect x="260" y="26" width="10" height="10" fill="#161b22" class="rect"/>
    <rect x="260" y="39" width="10" height="10" fill="#161b22" class="rect"/>
    <rect x="260" y="52" width="10" height="10" fill="#161b22" class="rect"/>
    <rect x="260" y="65" width="10" height="10" fill="#161b22" class="rect"/>
    <rect x="260" y="78" width="10" height="10" fill="#161b22" class="rect"/>
    <rect x="273" y="0" width="10" height="10" fill="#161b22" class="rect"/>
    <rect x="273" y="13" width="10" height="10" fill="#161b22" class="rect"/>
    <rect x="273" y="26" width="10" height="10" fill="#161b22" class="rect"/>
    <rect x="273" y="39" width="10" height="10" fill="#161b22" class="rect"/>
    <rect x="273" y="52" width="10" height="10" fill="#161b22" class="rect"/>
    <rect x="273" y="65" width="10" height="10" fill="#161b22" class="rect"/>
    <rect x="273" y="78" width="10" height="10" fill="#161b22" class="rect"/>
    <rect x="286" y="0" width="10" height="10" fill="#161b22" class="rect"/>
    <rect x="286" y="13" width="10" height="10" fill="#161b22" class="rect"/>
    <rect x="286" y="26" width="10" height="10" fill="#161b22" class="rect"/>
    <rect x="286" y="39" width="10" height="10" fill="#161b22" class="rect"/>
    <rect x="286" y="52" width="10" height="10" fill="#161b22" class="rect"/>
    <rect x="286" y="65" width="10" height="10" fill="#161b22" class="rect"/>
    <rect x="286" y="78" width="10" height="10" fill="#161b22" class="rect"/>
    <rect x="299" y="0" width="10" height="10" fill="#161b22" class="rect"/>
    <rect x="299" y="13" width="10" height="10" fill="#161b22" class="rect"/>
    <rect x="299" y="26" width="10" height="10" fill="#161b22" class="rect"/>
    <rect x="299" y="39" width="10" height="10" fill="#161b22" class="rect"/>
    <rect x="299" y="52" width="10" height="10" fill="#161b22" class="rect"/>
    <rect x="299" y="65" width="10" height="10" fill="#161b22" class="rect"/>
    <rect x="299" y="78" width="10" height="10" fill="#161b22" class="rect"/>
    <rect x="312" y="0" width="10" height="10" fill="#161b22" class="rect"/>
    <rect x="312" y="13" width="10" height="10" fill="#161b22" class="rect"/>
    <rect x="312" y="26" width="10" height="10" fill="#161b22" class="rect"/>
    <rect x="312" y="39" width="10" height="10" fill="#161b22" class="rect"/>
    <rect x="312" y="52" width="10" height="10" fill="#161b22" class="rect"/>
    <rect x="312" y="65" width="10" height="10" fill="#161b22" class="rect"/>
    <rect x="312" y="78" width="10" height="10" fill="#161b22" class="rect"/>
    <rect x="325" y="0" width="10" height="10" fill="#161b22" class="rect"/>
    <rect x="325" y="13" width="10" height="10" fill="#161b22" class="rect"/>
    <rect x="325" y="26" width="10" height="10" fill="#161b22" class="rect"/>
    <rect x="325" y="39" width="10" height="10" fill="#161b22" class="rect"/>
    <rect x="325" y="52" width="10" height="10" fill="#161b22" class="rect"/>
    <rect x="325" y="65" width="10" height="10" fill="#161b22" class="rect"/>
    <rect x="325" y="78" width="10" height="10" fill="#161b22" class="rect"/>
    <rect x="338" y="0" width="10" height="10" fill="#161b22" class="rect"/>
    <rect x="338" y="13" width="10" height="10" fill="#161b22" class="rect"/>
    <rect x="338" y="26" width="10" height="10" fill="#161b22" class="rect"/>
    <rect x="338" y="39" width="10" height="10" fill="#161b22" class="rect"/>
    <rect x="338" y="52" width="10" height="10" fill="#161b22" class="rect"/>
    <rect x="338" y="65" width="10" height="10" fill="#161b22" class="rect"/>
    <rect x="338" y="78" width="10" height="10" fill="#161b22" class="rect"/>
    <rect x="351" y="0" width="10" height="10" fill="#161b22" class="rect"/>
    <rect x="351" y="13" width="10" height="10" fill="#161b22" class="rect"/>
    <rect x="351" y="26" width="10" height="10" fill="#161b22" class="rect"/>
    <rect x="351" y="39" width="10" height="10" fill="#161b22" class="rect"/>
    <rect x="351" y="52" width="10" height="10" fill="#161b22" class="rect"/>
    <rect x="351" y="65" width="10" height="10" fill="#161b22" class="rect"/>
    <rect x="351" y="78" width="10" height="10" fill="#161b22" class="rect"/>
    <rect x="364" y="0" width="10" height="10" fill="#161b22" class="rect"/>
    <rect x="364" y="13" width="10" height="10" fill="#161b22" class="rect"/>
    <rect x="364" y="26" width="10" height="10" fill="#161b22" class="rect"/>
    <rect x="364" y="39" width="10" height="10" fill="#161b22" class="rect"/>
    <rect x="364" y="52" width="10" height="10" fill="#161b22" class="rect"/>
    <rect x="364" y="65" width="10" height="10" fill="#161b22" class="rect"/>
    <rect x="364" y="78" width="10" height="10" fill="#161b22" class="rect"/>
    <rect x="377" y="0" width="10" height="10" fill="#161b22" class="rect"/>
    <rect x="377" y="13" width="10" height="10" fill="#161b22" class="rect"/>
    <rect x="377" y="26" width="10" height="10" fill="#161b22" class="rect"/>
    <rect x="377" y="39" width="10" height="10" fill="#161b22" class="rect"/>
    <rect x="377" y="52" width="10" height="10" fill="#161b22" class="rect"/>
    <rect x="377" y="65" width="10" height="10" fill="#161b22" class="rect"/>
    <rect x="377" y="78" width="10" height="10" fill="#161b22" class="rect"/>
    <rect x="390" y="0" width="10" height="10" fill="#161b22" class="rect"/>
    <rect x="390" y="13" width="10" height="10" fill="#161b22" class="rect"/>
    <rect x="390" y="26" width="10" height="10" fill="#161b22" class="rect"/>
    <rect x="390" y="39" width="10" height="10" fill="#161b22" class="rect"/>
    <rect x="390" y="52" width="10" height="10" fill="#161b22" class="rect"/>
    <rect x="390" y="65" width="10" height="10" fill="#161b22" class="rect"/>
    <rect x="390" y="78" width="10" height="10" fill="#161b22" class="rect"/>
    <rect x="403" y="0" width="10" height="10" fill="#161b22" class="rect"/>
    <rect x="403" y="13" width="10" height="10" fill="#161b22" class="rect"/>
    <rect x="403" y="26" width="10" height="10" fill="#161b22" class="rect"/>
    <rect x="403" y="39" width="10" height="10" fill="#161b22" class="rect"/>
    <rect x="403" y="52" width="10" height="10" fill="#161b22" class="rect"/>
    <rect x="403" y="65" width="10" height="10" fill="#161b22" class="rect"/>
    <rect x="403" y="78" width="10" height="10" fill="#161b22" class="rect"/>
    <rect x="416" y="0" width="10" height="10" fill="#161b22" class="rect"/>
    <rect x="416" y="13" width="10" height="10" fill="#161b22" class="rect"/>
    <rect x="416" y="26" width="10" height="10" fill="#161b22" class="rect"/>
    <rect x="416" y="39" width="10" height="10" fill="#161b22" class="rect"/>
    <rect x="416" y="52" width="10" height="10" fill="#161b22" class="rect"/>
    <rect x="416" y="65" width="10" height="10" fill="#161b22" class="rect"/>
    <rect x="416" y="78" width="10" height="10" fill="#161b22" class="rect"/>
    <rect x="429" y="0" width="10" height="10" fill="#161b22" class="rect"/>
    <rect x="429" y="13" width="10" height="10" fill="#161b22" class="rect"/>
    <rect x="429" y="26" width="10" height="10" fill="#161b22" class="rect"/>
    <rect x="429" y="39" width="10" height="10" fill="#161b22" class="rect"/>
    <rect x="429" y="52" width="10" height="10" fill="#161b22" class="rect"/>
    <rect x="429" y="65" width="10" height="10" fill="#161b22" class="rect"/>
    <rect x="429" y="78" width="10" height="10" fill="#161b22" class="rect"/>
    <rect x="442" y="0" width="10" height="10" fill="#161b22" class="rect"/>
    <rect x="442" y="13" width="10" height="10" fill="#161b22" class="rect"/>
    <rect x="442" y="26" width="10" height="10" fill="#161b22" class="rect"/>
    <rect x="442" y="39" width="10" height="10" fill="#161b22" class="rect"/>
    <rect x="442" y="52" width="10" height="10" fill="#161b22" class="rect"/>
    <rect x="442" y="65" width="10" height="10" fill="#161b22" class="rect"/>
    <rect x="442" y="78" width="10" height="10" fill="#161b22" class="rect"/>
    <rect x="455" y="0" width="10" height="10" fill="#161b22" class="rect"/>
    <rect x="455" y="13" width="10" height="10" fill="#161b22" class="rect"/>
    <rect x="455" y="26" width="10" height="10" fill="#161b22" class="rect"/>
    <rect x="455" y="39" width="10" height="10" fill="#161b22" class="rect"/>
    <rect x="455" y="52" width="10" height="10" fill="#161b22" class="rect"/>
    <rect x="455" y="65" width="10" height="10" fill="#161b22" class="rect"/>
    <rect x="455" y="78" width="10" height="10" fill="#161b22" class="rect"/>
    <rect x="468" y="0" width="10" height="10" fill="#161b22" class="rect"/>
    <rect x="468" y="13" width="10" height="10" fill="#161b22" class="rect"/>
    <rect x="468" y="26" width="10" height="10" fill="#161b22" class="rect"/>
    <rect x="468" y="39" width="10" height="10" fill="#161b22" class="rect"/>
    <rect x="468" y="52" width="10" height="10" fill="#161b22" class="rect"/>
    <rect x="468" y="65" width="10" height="10" fill="#161b22" class="rect"/>
    <rect x="468" y="78" width="10" height="10" fill="#161b22" class="rect"/>
    <rect x="481" y="0" width="10" height="10" fill="#161b22" class="rect"/>
    <rect x="481" y="13" width="10" height="10" fill="#161b22" class="rect"/>
    <rect x="481" y="26" width="10" height="10" fill="#161b22" class="rect"/>
    <rect x="481" y="39" width="10" height="10" fill="#161b22" class="rect"/>
    <rect x="481" y="52" width="10" height="10" fill="#161b22" class="rect"/>
    <rect x="481" y="65" width="10" height="10" fill="#161b22" class="rect"/>
    <rect x="481" y="78" width="10" height="10" fill="#161b22" class="rect"/>
    <rect x="494" y="0" width="10" height="10" fill="#161b22" class="rect"/>
    <rect x="494" y="13" width="10" height="10" fill="#161b22" class="rect"/>
    <rect x="494" y="26" width="10" height="10" fill="#161b22" class="rect"/>
    <rect x="494" y="39" width="10" height="10" fill="#161b22" class="rect"/>
    <rect x="494" y="52" width="10" height="10" fill="#161b22" class="rect"/>
    <rect x="494" y="65" width="10" height="10" fill="#161b22" class="rect"/>
    <rect x="494" y="78" width="10" height="10" fill="#161b22" class="rect"/>
    <rect x="507" y="0" width="10" height="10" fill="#161b22" class="rect"/>
    <rect x="507" y="13" width="10" height="10" fill="#161b22" class="rect"/>
    <rect x="507" y="26" width="10" height="10" fill="#161b22" class="rect"/>
    <rect x="507" y="39" width="10" height="10" fill="#161b22" class="rect"/>
    <rect x="507" y="52" width="10" height="10" fill="#161b22" class="rect"/>
    <rect x="507" y="65" width="10" height="10" fill="#161b22" class="rect"/>
    <rect x="507" y="78" width="10" height="10" fill="#161b22" class="rect"/>
    <rect x="520" y="0" width="10" height="10" fill="#161b22" class="rect"/>
    <rect x="520" y="13" width="10" height="10" fill="#161b22" class="rect"/>
    <rect x="520" y="26" width="10" height="10" fill="#161b22" class="rect"/>
    <rect x="520" y="39" width="10" height="10" fill="#161b22" class="rect"/>
    <rect x="520" y="52" width="10" height="10" fill="#161b22" class="rect"/>
    <rect x="520" y="65" width="10" height="10" fill="#161b22" class="rect"/>
    <rect x="520" y="78" width="10" height="10" fill="#161b22" class="rect"/>
    <rect x="533" y="0" width="10" height="10" fill="#161b22" class="rect"/>
    <rect x="533" y="13" width="10" height="10" fill="#161b22" class="rect"/>
    <rect x="533" y="26" width="10" height="10" fill="#161b22" class="rect"/>
    <rect x="533" y="39" width="10" height="10" fill="#161b22" class="rect"/>
    <rect x="533" y="52" width="10" height="10" fill="#161b22" class="rect"/>
    <rect x="533" y="65" width="10" height="10" fill="#161b22" class="rect"/>
    <rect x="533" y="78" width="10" height="10" fill="#161b22" class="rect"/>
    <rect x="546" y="0" width="10" height="10" fill="#161b22" class="rect"/>
    <rect x="546" y="13" width="10" height="10" fill="#161b22" class="rect"/>
    <rect x="546" y="26" width="10" height="10" fill="#161b22" class="rect"/>
    <rect x="546" y="39" width="10" height="10" fill="#161b22" class="rect"/>
    <rect x="546" y="52" width="10" height="10" fill="#161b22" class="rect"/>
    <rect x="546" y="65" width="10" height="10" fill="#161b22" class="rect"/>
    <rect x="546" y="78" width="10" height="10" fill="#161b22" class="rect"/>
    <rect x="559" y="0" width="10" height="10" fill="#161b22" class="rect"/>
    <rect x="559" y="13" width="10" height="10" fill="#161b22" class="rect"/>
    <rect x="559" y="26" width="10" height="10" fill="#161b22" class="rect"/>
    <rect x="559" y="39" width="10" height="10" fill="#161b22" class="rect"/>
    <rect x="559" y="52" width="10" height="10" fill="#161b22" class="rect"/>
    <rect x="559" y="65" width="10" height="10" fill="#161b22" class="rect"/>
    <rect x="559" y="78" width="10" height="10" fill="#161b22" class="rect"/>
    <rect x="572" y="0" width="10" height="10" fill="#161b22" class="rect"/>
    <rect x="572" y="13" width="10" height="10" fill="#161b22" class="rect"/>
    <rect x="572" y="26" width="10" height="10" fill="#161b22" class="rect"/>
    <rect x="572" y="39" width="10" height="10" fill="#161b22" class="rect"/>
    <rect x="572" y="52" width="10" height="10" fill="#161b22" class="rect"/>
    <rect x="572" y="65" width="10" height="10" fill="#161b22" class="rect"/>
    <rect x="572" y="78" width="10" height="10" fill="#161b22" class="rect"/>
    <rect x="585" y="0" width="10" height="10" fill="#161b22" class="rect"/>
    <rect x="585" y="13" width="10" height="10" fill="#161b22" class="rect"/>
    <rect x="585" y="26" width="10" height="10" fill="#161b22" class="rect"/>
    <rect x="585" y="39" width="10" height="10" fill="#161b22" class="rect"/>
    <rect x="585" y="52" width="10" height="10" fill="#161b22" class="rect"/>
    <rect x="585" y="65" width="10" height="10" fill="#161b22" class="rect"/>
    <rect x="585" y="78" width="10" height="10" fill="#161b22" class="rect"/>
    <rect x="598" y="0" width="10" height="10" fill="#161b22" class="rect"/>
    <rect x="598" y="13" width="10" height="10" fill="#161b22" class="rect"/>
    <rect x="598" y="26" width="10" height="10" fill="#161b22" class="rect"/>
    <rect x="598" y="39" width="10" height="10" fill="#161b22" class="rect"/>
    <rect x="598" y="52" width="10" height="10" fill="#161b22" class="rect"/>
    <rect x="598" y="65" width="10" height="10" fill="#161b22" class="rect"/>
    <rect x="598" y="78" width="10" height="10" fill="#161b22" class="rect"/>
    <rect x="611" y="0" width="10" height="10" fill="#161b22" class="rect"/>
    <rect x="611" y="13" width="10" height="10" fill="#161b22" class="rect"/>
    <rect x="611" y="26" width="10" height="10" fill="#161b22" class="rect"/>
    <rect x="611" y="39" width="10" height="10" fill="#161b22" class="rect"/>
    <rect x="611" y="52" width="10" height="10" fill="#161b22" class="rect"/>
    <rect x="611" y="65" width="10" height="10" fill="#161b22" class="rect"/>
    <rect x="611" y="78" width="10" height="10" fill="#161b22" class="rect"/>
    <rect x="624" y="0" width="10" height="10" fill="#161b22" class="rect"/>
    <rect x="624" y="13" width="10" height="10" fill="#161b22" class="rect"/>
    <rect x="624" y="26" width="10" height="10" fill="#161b22" class="rect"/>
    <rect x="624" y="39" width="10" height="10" fill="#161b22" class="rect"/>
    <rect x="624" y="52" width="10" height="10" fill="#161b22" class="rect"/>
    <rect x="624" y="65" width="10" height="10" fill="#161b22" class="rect"/>
    <rect x="624" y="78" width="10" height="10" fill="#161b22" class="rect"/>
    <rect x="637" y="0" width="10" height="10" fill="#161b22" class="rect"/>
    <rect x="637" y="13" width="10" height="10" fill="#161b22" class="rect"/>
    <rect x="637" y="26" width="10" height="10" fill="#161b22" class="rect"/>
    <rect x="637" y="39" width="10" height="10" fill="#161b22" class="rect"/>
    <rect x="637" y="52" width="10" height="10" fill="#161b22" class="rect"/>
    <rect x="637" y="65" width="10" height="10" fill="#161b22" class="rect"/>
    <rect x="637" y="78" width="10" height="10" fill="#161b22" class="rect"/>
    <rect x="650" y="0" width="10" height="10" fill="#161b22" class="rect"/>
    <rect x="650" y="13" width="10" height="10" fill="#161b22" class="rect"/>
    <rect x="650" y="26" width="10" height="10" fill="#161b22" class="rect"/>
    <rect x="650" y="39" width="10" height="10" fill="#161b22" class="rect"/>
    <rect x="650" y="52" width="10" height="10" fill="#161b22" class="rect"/>
    <rect x="650" y="65" width="10" height="10" fill="#161b22" class="rect"/>
    <rect x="650" y="78" width="10" height="10" fill="#161b22" class="rect"/>
    <rect x="663" y="0" width="10" height="10" fill="#161b22" class="rect"/>
    <rect x="663" y="13" width="10" height="10" fill="#161b22" class="rect"/>
    <rect x="663" y="26" width="10" height="10" fill="#161b22" class="rect"/>
    <rect x="663" y="39" width="10" height="10" fill="#161b22" class="rect"/>
    <rect x="663" y="52" width="10" height="10" fill="#161b22" class="rect"/>
    <rect x="663" y="65" width="10" height="10" fill="#161b22" class="rect"/>
    <rect x="663" y="78" width="10" height="10" fill="#161b22" class="rect"/>
    <rect x="676" y="0" width="10" height="10" fill="#161b22" class="rect"/>
    <rect x="676" y="13" width="10" height="10" fill="#161b22" class="rect"/>
    <rect x="676" y="26" width="10" height="10" fill="#161b22" class="rect"/>
  </g>
  <g transform="translate(700, 175)">
    <text x="-30" y="10" class="text">Less</text>
    <rect x="0" y="0" width="10" height="10" fill="#161b22" class="rect"/>
    <rect x="15" y="0" width="10" height="10" fill="#0e4429" class="rect"/>
    <rect x="30" y="0" width="10" height="10" fill="#006d32" class="rect"/>
    <rect x="45" y="0" width="10" height="10" fill="#26a641" class="rect"/>
    <rect x="60" y="0" width="10" height="10" fill="#39d353" class="rect"/>
    <text x="78" y="10" class="text">More</text>
  </g>
</svg>